<svg version="1.1" id="Layer_1" xmlns="http://www.w3.org/2000/svg" xmlns:xlink="http://www.w3.org/1999/xlink" x="0px" y="0px"
	 viewBox="0 0 64 64" xml:space="preserve">
		<title>Google Plus</title> 
		
		<path fill="#FFFFFF" d="M34.7,37.618c-1.362-0.586-2.713-0.908-4.061-0.967c-0.937-0.029-2.524-0.117-4.762-0.262
		c-2.241-0.146-4.001-0.235-5.289-0.262c-1.199-0.029-2.362-0.073-3.489-0.135c-1.126-0.057-2.115-0.203-2.962-0.438
		c-0.879-0.206-1.625-0.593-2.24-1.166c-0.615-0.567-0.921-1.396-0.921-2.48c0-1.053,0.365-1.888,1.097-2.499
		c0.732-0.612,1.432-1.039,2.105-1.273h5.311c4.096,0,7.688-1.317,10.775-3.95c3.087-2.634,4.63-5.852,4.63-9.656
		c0-1.462-0.262-2.955-0.789-4.478c-0.525-1.521-1.331-2.911-2.413-4.171V5.619h10.183V1.405h-15.1
		c-1.346-0.409-2.671-0.746-3.973-1.009C21.5,0.135,20.19,0,18.875,0c-4.77,0-8.684,1.317-11.74,3.952
		C4.077,6.586,2.546,9.951,2.546,14.047c0,2.722,0.774,5.115,2.327,7.176c1.55,2.063,3.729,3.753,6.54,5.07v0.658
		c-2.223,0.936-3.883,2.058-4.983,3.357c-1.097,1.303-1.645,2.728-1.645,4.28c0,1.229,0.235,2.259,0.703,3.095
		c0.467,0.836,1.082,1.56,1.843,2.174c0.674,0.526,1.477,0.987,2.414,1.382c0.936,0.394,1.844,0.726,2.721,0.987v0.613
		c-3.629,0.149-6.613,1.083-8.954,2.809C1.171,47.375,0,49.73,0,52.718c0,3.688,1.626,6.485,4.873,8.405
		C8.119,63.042,13.021,64,19.575,64c4.008,0,7.375-0.383,10.098-1.144c2.722-0.762,5.061-1.829,7.022-3.206
		c1.844-1.346,3.217-2.932,4.128-4.762c0.905-1.829,1.361-3.78,1.361-5.858c0-2.079-0.338-3.82-1.009-5.225
		c-0.673-1.404-1.597-2.663-2.767-3.776C37.297,39.008,36.061,38.203,34.7,37.618z M24.516,22.058
		c-1.361,2.034-3.301,3.051-5.815,3.051c-2.253,0-4.089-1.023-5.509-3.073c-1.42-2.047-2.127-4.695-2.127-7.945
		c0-1.432,0.125-2.83,0.372-4.191s0.664-2.524,1.251-3.489c0.615-1.053,1.413-1.865,2.392-2.436
		c0.979-0.571,2.157-0.857,3.533-0.857c2.514,0,4.469,1.019,5.86,3.051c1.387,2.034,2.085,4.762,2.085,8.185
		C26.558,17.455,25.877,20.023,24.516,22.058z M31.276,58.182c-2.473,1.655-5.861,2.48-10.161,2.48
		c-2.487,0-4.593-0.242-6.322-0.722c-1.726-0.482-3.102-1.104-4.125-1.869c-1.082-0.788-1.844-1.652-2.282-2.59
		c-0.438-0.936-0.658-1.915-0.658-2.94c0-2.282,0.666-4.145,1.998-5.595c1.33-1.449,3.577-2.482,6.737-3.098
		c3.365,0,6.322,0.074,8.866,0.221c2.547,0.149,4.229,0.279,5.049,0.395c1.551,0.379,2.706,1.097,3.47,2.152
		c0.762,1.055,1.141,2.396,1.141,4.036C34.983,54.018,33.75,56.53,31.276,58.182z"/>
		<path fill="#FFFFFF" d="M51.718,14.318V22.9h3.35v-8.582h8.543v-3.293h-8.543V2.424h-3.35v8.602h-8.543v3.293H51.718L51.718,14.318
		z"/>
</svg>