<svg version="1.1" id="Layer_1" xmlns="http://www.w3.org/2000/svg" xmlns:xlink="http://www.w3.org/1999/xlink" x="0px" y="0px"
	 viewBox="0 0 64 64" xml:space="preserve">
		<title>Pinterest</title> 
		
		<path fill="#FFFFFF" d="M18.924,61.027C3.735,54.875-3.981,36.195,2.063,20.569C8.371,4.279,26.524-4.013,42.859,1.914
		c16.604,6.035,25.082,23.838,19.355,40.665c-5.338,15.693-23.418,25.008-38.612,20.113c1.678-5.066,3.343-10.127,4.983-15.102
		c4.885,4.449,11.357,4.598,17.031,0.256c7.002-5.365,10.119-17.827,6.379-25.844c-3.012-6.456-8.283-10.09-15.201-10.992
		c-9.13-1.195-17.193,1.109-22.849,8.865c-4.074,5.578-4.922,11.767-2.073,18.229c0.908,2.055,2.445,3.584,4.465,4.604
		c1.184,0.602,1.921,0.334,2.342-0.994c0.562-1.793,0.525-3.25-0.622-5c-2.391-3.646-1.726-7.645-0.141-11.437
		c3.752-8.962,16.665-12.133,23.894-5.938c2.373,2.043,3.563,4.701,3.758,7.731c0.305,4.584-0.404,9.015-2.611,13.119
		c-1.313,2.434-3.111,4.342-5.918,5.023c-4.264,1.025-7.428-2.061-6.392-6.303c0.696-2.854,1.585-5.658,2.343-8.499
		c0.195-0.726,0.299-1.494,0.328-2.25c0.098-2.177-0.926-4.018-2.561-4.737c-1.757-0.762-4.057-0.256-5.532,1.354
		c-2.703,2.945-2.837,6.414-2.044,10.121c0.256,1.207,0.293,2.572,0.037,3.779c-1.214,5.633-2.623,11.23-3.831,16.877
		C19.01,57.277,19.076,59.1,18.924,61.027z"/>
</svg>